<?xml version="1.0" encoding="UTF-8"?> <!-- Generator: Adobe Illustrator 16.0.0, SVG Export Plug-In . SVG Version: 6.00 Build 0) --> <svg xmlns="http://www.w3.org/2000/svg" xmlns:xlink="http://www.w3.org/1999/xlink" id="Layer_1" x="0px" y="0px" width="107.606px" height="28.077px" viewBox="0 0 107.606 28.077" xml:space="preserve"> <path fill="#12C3F4" d="M14.039,0C6.297,0,0,6.298,0,14.038c0,7.741,6.297,14.039,14.039,14.039c7.741,0,14.039-6.298,14.039-14.039 C28.077,6.298,21.779,0,14.039,0z M13.95,21.129c-4.056,0-7.356-3.301-7.356-7.356c0-4.058,3.3-7.357,7.356-7.357 c4.056,0,7.356,3.3,7.356,7.357C21.306,17.828,18.005,21.129,13.95,21.129z"></path> <g> <g> <path fill="#12C3F4" d="M31.431,20.624c0-0.175,0.032-0.349,0.095-0.52c0.063-0.172,0.156-0.325,0.277-0.46 s0.27-0.244,0.445-0.328s0.375-0.125,0.599-0.125c0.265,0,0.494,0.058,0.687,0.174s0.337,0.267,0.431,0.453l-0.429,0.296 c-0.038-0.081-0.083-0.149-0.138-0.204c-0.054-0.056-0.112-0.1-0.174-0.132c-0.062-0.032-0.127-0.057-0.194-0.071 c-0.068-0.015-0.134-0.022-0.199-0.022c-0.14,0-0.262,0.028-0.366,0.085c-0.104,0.058-0.19,0.131-0.259,0.221 c-0.069,0.091-0.121,0.193-0.156,0.309c-0.035,0.114-0.053,0.229-0.053,0.342c0,0.127,0.021,0.249,0.061,0.366 c0.041,0.117,0.098,0.221,0.172,0.31c0.074,0.09,0.163,0.161,0.267,0.215s0.218,0.081,0.342,0.081 c0.065,0,0.132-0.008,0.203-0.024c0.07-0.016,0.137-0.042,0.2-0.077s0.122-0.08,0.176-0.136c0.054-0.055,0.097-0.122,0.129-0.2 l0.458,0.264c-0.046,0.107-0.111,0.203-0.196,0.285s-0.181,0.152-0.288,0.209c-0.106,0.057-0.221,0.1-0.342,0.129 c-0.121,0.03-0.24,0.045-0.356,0.045c-0.205,0-0.393-0.043-0.563-0.13c-0.17-0.086-0.316-0.199-0.439-0.338 c-0.123-0.139-0.218-0.297-0.287-0.474S31.431,20.808,31.431,20.624z"></path> <path fill="#12C3F4" d="M35.448,22.122c-0.173,0-0.328-0.029-0.466-0.089s-0.254-0.14-0.35-0.24 c-0.096-0.102-0.169-0.219-0.221-0.351c-0.051-0.133-0.077-0.271-0.077-0.417c0-0.148,0.026-0.289,0.077-0.421 c0.051-0.133,0.125-0.249,0.221-0.351c0.096-0.102,0.212-0.182,0.35-0.241s0.293-0.089,0.466-0.089 c0.172,0,0.327,0.029,0.463,0.089s0.252,0.14,0.348,0.241c0.096,0.102,0.169,0.218,0.221,0.351 c0.051,0.132,0.077,0.272,0.077,0.421c0,0.146-0.026,0.284-0.077,0.417c-0.051,0.132-0.124,0.249-0.219,0.351 c-0.094,0.101-0.21,0.181-0.348,0.24S35.621,22.122,35.448,22.122z M34.894,21.025c0,0.095,0.014,0.18,0.042,0.257 s0.067,0.144,0.117,0.2s0.109,0.101,0.176,0.132s0.14,0.047,0.219,0.047c0.078,0,0.151-0.016,0.218-0.047 c0.068-0.031,0.126-0.075,0.176-0.132s0.089-0.124,0.118-0.202s0.042-0.165,0.042-0.259c0-0.092-0.014-0.177-0.042-0.256 c-0.028-0.078-0.068-0.146-0.118-0.202s-0.108-0.101-0.176-0.132c-0.067-0.03-0.14-0.046-0.218-0.046 c-0.079,0-0.151,0.016-0.219,0.048c-0.067,0.033-0.126,0.077-0.176,0.134s-0.089,0.124-0.117,0.203 C34.908,20.849,34.894,20.934,34.894,21.025z"></path> <path fill="#12C3F4" d="M40.355,22.082h-0.542v-1.19c0-0.17-0.029-0.294-0.087-0.372c-0.058-0.079-0.139-0.118-0.241-0.118 c-0.108,0-0.209,0.041-0.304,0.124c-0.094,0.082-0.162,0.189-0.202,0.321v1.235h-0.543v-1.19c0-0.17-0.029-0.294-0.087-0.372 c-0.058-0.079-0.138-0.118-0.241-0.118c-0.105,0-0.206,0.041-0.302,0.122s-0.164,0.188-0.205,0.319v1.239H37.06V19.96h0.49v0.394 c0.079-0.138,0.186-0.244,0.322-0.318c0.136-0.074,0.292-0.111,0.467-0.111c0.178,0,0.316,0.043,0.413,0.13 c0.097,0.086,0.159,0.192,0.187,0.319c0.086-0.146,0.195-0.257,0.328-0.334s0.284-0.115,0.454-0.115 c0.129,0,0.236,0.024,0.32,0.073c0.084,0.048,0.148,0.111,0.194,0.19c0.046,0.078,0.078,0.167,0.095,0.267 s0.026,0.201,0.026,0.304V22.082z"></path> <path fill="#12C3F4" d="M42.238,22.122c-0.167,0-0.313-0.037-0.438-0.111s-0.221-0.174-0.292-0.301v1.234h-0.542V19.96h0.474 v0.365c0.078-0.125,0.18-0.223,0.304-0.294s0.267-0.107,0.429-0.107c0.143,0,0.275,0.029,0.397,0.087 c0.122,0.059,0.226,0.137,0.313,0.235c0.088,0.099,0.157,0.214,0.207,0.348c0.05,0.134,0.075,0.275,0.075,0.424 c0,0.153-0.023,0.298-0.069,0.433s-0.11,0.253-0.192,0.353c-0.083,0.1-0.18,0.178-0.293,0.234 C42.497,22.094,42.373,22.122,42.238,22.122z M42.056,21.661c0.081,0,0.156-0.018,0.225-0.053s0.127-0.082,0.176-0.142 c0.048-0.06,0.086-0.128,0.113-0.207c0.027-0.078,0.041-0.159,0.041-0.242c0-0.09-0.015-0.173-0.045-0.249 c-0.029-0.077-0.071-0.145-0.123-0.201c-0.053-0.057-0.115-0.101-0.187-0.134c-0.071-0.032-0.149-0.048-0.233-0.048 c-0.051,0-0.104,0.009-0.158,0.026c-0.054,0.018-0.104,0.042-0.15,0.074c-0.046,0.033-0.087,0.07-0.124,0.113 c-0.037,0.044-0.064,0.091-0.083,0.143v0.498c0.049,0.121,0.123,0.222,0.223,0.301C41.832,21.621,41.94,21.661,42.056,21.661z"></path> <path fill="#12C3F4" d="M44.319,22.122c-0.219,0-0.385-0.069-0.498-0.21c-0.114-0.141-0.17-0.349-0.17-0.624V19.96h0.543v1.211 c0,0.327,0.117,0.49,0.352,0.49c0.105,0,0.207-0.032,0.306-0.096s0.179-0.159,0.241-0.289V19.96h0.542v1.498 c0,0.058,0.01,0.098,0.03,0.122s0.053,0.038,0.099,0.04v0.462c-0.054,0.011-0.099,0.018-0.136,0.021 c-0.036,0.002-0.069,0.004-0.099,0.004c-0.097,0-0.176-0.022-0.237-0.067c-0.061-0.044-0.097-0.105-0.107-0.184l-0.012-0.17 c-0.094,0.146-0.216,0.255-0.364,0.328C44.661,22.086,44.498,22.122,44.319,22.122z"></path> <path fill="#12C3F4" d="M47.583,21.973c-0.073,0.032-0.162,0.064-0.268,0.098c-0.105,0.032-0.216,0.048-0.332,0.048 c-0.075,0-0.146-0.009-0.212-0.028c-0.066-0.019-0.124-0.049-0.174-0.091c-0.05-0.042-0.089-0.096-0.119-0.162 s-0.044-0.146-0.044-0.241v-1.219h-0.28V19.96h0.28v-0.688h0.542v0.688h0.445v0.417h-0.445v1.037c0,0.075,0.02,0.129,0.059,0.16 c0.039,0.03,0.087,0.046,0.144,0.046c0.057,0,0.112-0.009,0.166-0.028c0.054-0.019,0.097-0.035,0.13-0.048L47.583,21.973z"></path> <path fill="#12C3F4" d="M48.583,22.122c-0.103,0-0.199-0.017-0.288-0.05c-0.089-0.034-0.166-0.081-0.231-0.142 c-0.064-0.062-0.115-0.132-0.152-0.213c-0.036-0.081-0.055-0.17-0.055-0.268c0-0.1,0.022-0.192,0.067-0.277 s0.106-0.157,0.187-0.217c0.08-0.059,0.174-0.105,0.285-0.14c0.111-0.033,0.232-0.051,0.365-0.051 c0.094,0,0.187,0.009,0.277,0.024c0.09,0.017,0.17,0.039,0.241,0.069v-0.122c0-0.14-0.04-0.248-0.12-0.323 c-0.08-0.076-0.198-0.113-0.354-0.113c-0.113,0-0.224,0.02-0.332,0.061c-0.108,0.04-0.219,0.1-0.332,0.178l-0.166-0.344 c0.272-0.181,0.567-0.271,0.883-0.271c0.305,0,0.542,0.075,0.71,0.225c0.168,0.15,0.253,0.366,0.253,0.65v0.659 c0,0.058,0.01,0.098,0.03,0.122c0.021,0.024,0.054,0.038,0.1,0.04v0.462c-0.092,0.019-0.172,0.028-0.239,0.028 c-0.103,0-0.182-0.022-0.237-0.068s-0.09-0.107-0.103-0.183l-0.012-0.117c-0.095,0.124-0.209,0.219-0.344,0.283 C48.881,22.09,48.737,22.122,48.583,22.122z M48.737,21.726c0.092,0,0.179-0.016,0.261-0.049c0.082-0.032,0.146-0.075,0.192-0.129 c0.059-0.046,0.089-0.098,0.089-0.154V21.15c-0.065-0.024-0.135-0.044-0.21-0.059s-0.148-0.022-0.219-0.022 c-0.141,0-0.255,0.032-0.344,0.096c-0.089,0.063-0.134,0.144-0.134,0.241c0,0.092,0.035,0.168,0.105,0.229 S48.634,21.726,48.737,21.726z"></path> <path fill="#12C3F4" d="M51.721,21.973c-0.073,0.032-0.162,0.064-0.268,0.098c-0.105,0.032-0.216,0.048-0.332,0.048 c-0.075,0-0.146-0.009-0.212-0.028c-0.066-0.019-0.124-0.049-0.174-0.091c-0.05-0.042-0.089-0.096-0.119-0.162 s-0.044-0.146-0.044-0.241v-1.219h-0.28V19.96h0.28v-0.688h0.542v0.688h0.445v0.417h-0.445v1.037c0,0.075,0.02,0.129,0.059,0.16 c0.039,0.03,0.087,0.046,0.144,0.046c0.057,0,0.112-0.009,0.166-0.028c0.054-0.019,0.097-0.035,0.13-0.048L51.721,21.973z"></path> <path fill="#12C3F4" d="M52.142,19.665v-0.539h0.542v0.539H52.142z M52.142,22.082V19.96h0.542v2.122H52.142z"></path> <path fill="#12C3F4" d="M54.292,22.122c-0.173,0-0.328-0.029-0.466-0.089s-0.254-0.14-0.35-0.24 c-0.096-0.102-0.169-0.219-0.221-0.351c-0.051-0.133-0.077-0.271-0.077-0.417c0-0.148,0.026-0.289,0.077-0.421 c0.051-0.133,0.125-0.249,0.221-0.351c0.096-0.102,0.212-0.182,0.35-0.241s0.293-0.089,0.466-0.089 c0.172,0,0.327,0.029,0.463,0.089s0.252,0.14,0.348,0.241c0.097,0.102,0.17,0.218,0.221,0.351 c0.052,0.132,0.078,0.272,0.078,0.421c0,0.146-0.026,0.284-0.078,0.417c-0.051,0.132-0.123,0.249-0.219,0.351 c-0.094,0.101-0.21,0.181-0.348,0.24S54.465,22.122,54.292,22.122z M53.738,21.025c0,0.095,0.014,0.18,0.042,0.257 s0.067,0.144,0.117,0.2s0.109,0.101,0.176,0.132s0.14,0.047,0.219,0.047c0.078,0,0.151-0.016,0.218-0.047s0.126-0.075,0.177-0.132 c0.049-0.057,0.089-0.124,0.117-0.202s0.043-0.165,0.043-0.259c0-0.092-0.015-0.177-0.043-0.256 c-0.028-0.078-0.068-0.146-0.117-0.202c-0.051-0.057-0.109-0.101-0.177-0.132c-0.067-0.03-0.14-0.046-0.218-0.046 c-0.079,0-0.151,0.016-0.219,0.048c-0.067,0.033-0.126,0.077-0.176,0.134s-0.089,0.124-0.117,0.203 C53.752,20.849,53.738,20.934,53.738,21.025z"></path> <path fill="#12C3F4" d="M57.875,22.082h-0.542v-1.19c0-0.17-0.03-0.294-0.089-0.372c-0.06-0.079-0.143-0.118-0.247-0.118 c-0.054,0-0.109,0.011-0.166,0.032c-0.057,0.022-0.11,0.053-0.16,0.092s-0.095,0.086-0.136,0.14 c-0.04,0.054-0.07,0.113-0.089,0.178v1.239h-0.542V19.96h0.489v0.394c0.079-0.136,0.192-0.24,0.341-0.316 c0.148-0.075,0.315-0.113,0.502-0.113c0.132,0,0.24,0.024,0.324,0.073c0.083,0.048,0.148,0.111,0.193,0.19 c0.047,0.078,0.078,0.167,0.096,0.267s0.025,0.201,0.025,0.304V22.082z"></path> <path fill="#12C3F4" d="M59.066,22.122c-0.103,0-0.199-0.017-0.287-0.05c-0.09-0.034-0.166-0.081-0.231-0.142 c-0.064-0.062-0.115-0.132-0.151-0.213c-0.037-0.081-0.055-0.17-0.055-0.268c0-0.1,0.021-0.192,0.066-0.277 s0.106-0.157,0.187-0.217c0.079-0.059,0.175-0.105,0.285-0.14c0.11-0.033,0.232-0.051,0.364-0.051 c0.095,0,0.188,0.009,0.277,0.024c0.091,0.017,0.171,0.039,0.241,0.069v-0.122c0-0.14-0.04-0.248-0.12-0.323 c-0.079-0.076-0.197-0.113-0.354-0.113c-0.113,0-0.225,0.02-0.332,0.061c-0.107,0.04-0.219,0.1-0.332,0.178l-0.166-0.344 c0.272-0.181,0.566-0.271,0.883-0.271c0.305,0,0.541,0.075,0.711,0.225c0.168,0.15,0.252,0.366,0.252,0.65v0.659 c0,0.058,0.011,0.098,0.031,0.122c0.02,0.024,0.053,0.038,0.1,0.04v0.462c-0.092,0.019-0.172,0.028-0.24,0.028 c-0.102,0-0.182-0.022-0.236-0.068s-0.09-0.107-0.104-0.183l-0.012-0.117c-0.095,0.124-0.209,0.219-0.344,0.283 C59.364,22.09,59.221,22.122,59.066,22.122z M59.221,21.726c0.092,0,0.178-0.016,0.261-0.049c0.082-0.032,0.146-0.075,0.192-0.129 c0.059-0.046,0.089-0.098,0.089-0.154V21.15c-0.065-0.024-0.135-0.044-0.21-0.059c-0.076-0.015-0.148-0.022-0.219-0.022 c-0.141,0-0.256,0.032-0.345,0.096s-0.134,0.144-0.134,0.241c0,0.092,0.035,0.168,0.105,0.229S59.117,21.726,59.221,21.726z"></path> <path fill="#12C3F4" d="M60.945,19.126h0.542v2.275c0,0.079,0.019,0.14,0.057,0.183s0.092,0.064,0.162,0.064 c0.032,0,0.067-0.005,0.106-0.016s0.076-0.024,0.111-0.041l0.074,0.413c-0.074,0.035-0.158,0.062-0.256,0.081 s-0.186,0.028-0.264,0.028c-0.17,0-0.301-0.045-0.395-0.136c-0.093-0.09-0.139-0.219-0.139-0.387V19.126z"></path> <path fill="#12C3F4" d="M63.406,22.082v-2.875h1.219c0.133,0,0.255,0.027,0.367,0.083c0.111,0.056,0.208,0.128,0.289,0.219 s0.145,0.193,0.19,0.308c0.046,0.115,0.069,0.23,0.069,0.347c0,0.121-0.021,0.239-0.065,0.354 c-0.043,0.115-0.104,0.217-0.183,0.306c-0.078,0.09-0.172,0.161-0.283,0.215c-0.11,0.055-0.232,0.081-0.364,0.081h-0.681v0.964 H63.406z M63.965,20.628h0.648c0.103,0,0.188-0.041,0.257-0.125s0.104-0.197,0.104-0.34c0-0.073-0.011-0.139-0.032-0.196 c-0.021-0.059-0.051-0.107-0.086-0.148c-0.035-0.04-0.076-0.07-0.123-0.091s-0.095-0.03-0.144-0.03h-0.624V20.628z"></path> <path fill="#12C3F4" d="M66.573,22.122c-0.103,0-0.198-0.017-0.288-0.05c-0.089-0.034-0.166-0.081-0.23-0.142 c-0.064-0.062-0.115-0.132-0.152-0.213c-0.035-0.081-0.055-0.17-0.055-0.268c0-0.1,0.023-0.192,0.067-0.277 s0.106-0.157,0.187-0.217c0.08-0.059,0.174-0.105,0.285-0.14c0.111-0.033,0.232-0.051,0.365-0.051 c0.094,0,0.186,0.009,0.277,0.024c0.09,0.017,0.17,0.039,0.24,0.069v-0.122c0-0.14-0.04-0.248-0.119-0.323 c-0.08-0.076-0.198-0.113-0.354-0.113c-0.113,0-0.224,0.02-0.332,0.061c-0.108,0.04-0.219,0.1-0.332,0.178l-0.166-0.344 c0.272-0.181,0.567-0.271,0.883-0.271c0.305,0,0.542,0.075,0.71,0.225c0.169,0.15,0.254,0.366,0.254,0.65v0.659 c0,0.058,0.01,0.098,0.029,0.122c0.021,0.024,0.055,0.038,0.1,0.04v0.462c-0.092,0.019-0.172,0.028-0.238,0.028 c-0.104,0-0.182-0.022-0.237-0.068s-0.09-0.107-0.103-0.183l-0.013-0.117c-0.095,0.124-0.21,0.219-0.345,0.283 S66.727,22.122,66.573,22.122z M66.727,21.726c0.092,0,0.18-0.016,0.262-0.049c0.082-0.032,0.146-0.075,0.192-0.129 c0.06-0.046,0.089-0.098,0.089-0.154V21.15c-0.064-0.024-0.135-0.044-0.211-0.059c-0.075-0.015-0.148-0.022-0.219-0.022 c-0.141,0-0.254,0.032-0.344,0.096c-0.089,0.063-0.134,0.144-0.134,0.241c0,0.092,0.035,0.168,0.105,0.229 S66.625,21.726,66.727,21.726z"></path> <path fill="#12C3F4" d="M69.711,21.973c-0.073,0.032-0.162,0.064-0.268,0.098c-0.105,0.032-0.216,0.048-0.332,0.048 c-0.075,0-0.146-0.009-0.213-0.028c-0.065-0.019-0.123-0.049-0.174-0.091c-0.05-0.042-0.09-0.096-0.119-0.162 s-0.045-0.146-0.045-0.241v-1.219h-0.279V19.96h0.279v-0.688h0.543v0.688h0.445v0.417h-0.445v1.037c0,0.075,0.02,0.129,0.059,0.16 c0.039,0.03,0.087,0.046,0.144,0.046c0.058,0,0.112-0.009,0.166-0.028c0.054-0.019,0.097-0.035,0.13-0.048L69.711,21.973z"></path> <path fill="#12C3F4" d="M72.104,22.082h-0.542v-1.19c0-0.167-0.03-0.291-0.093-0.37c-0.062-0.08-0.15-0.12-0.264-0.12 c-0.049,0-0.1,0.011-0.154,0.032c-0.053,0.022-0.104,0.053-0.153,0.092c-0.048,0.039-0.093,0.086-0.134,0.14 c-0.04,0.054-0.07,0.113-0.089,0.178v1.239h-0.542v-2.956h0.542v1.228c0.078-0.138,0.185-0.244,0.317-0.318 c0.135-0.074,0.281-0.111,0.443-0.111c0.139,0,0.25,0.023,0.336,0.071c0.087,0.047,0.154,0.109,0.203,0.188 c0.049,0.079,0.082,0.168,0.102,0.268c0.019,0.1,0.027,0.202,0.027,0.308V22.082z"></path> <path fill="#12C3F4" d="M73.695,22.122c-0.173,0-0.328-0.029-0.466-0.089s-0.255-0.14-0.351-0.24 c-0.096-0.102-0.169-0.219-0.221-0.351c-0.051-0.133-0.076-0.271-0.076-0.417c0-0.148,0.025-0.289,0.076-0.421 c0.052-0.133,0.125-0.249,0.221-0.351s0.213-0.182,0.351-0.241s0.293-0.089,0.466-0.089c0.172,0,0.327,0.029,0.463,0.089 c0.137,0.06,0.253,0.14,0.349,0.241c0.097,0.102,0.169,0.218,0.221,0.351c0.052,0.132,0.077,0.272,0.077,0.421 c0,0.146-0.025,0.284-0.077,0.417c-0.052,0.132-0.124,0.249-0.219,0.351c-0.095,0.101-0.21,0.181-0.349,0.24 C74.023,22.093,73.867,22.122,73.695,22.122z M73.141,21.025c0,0.095,0.014,0.18,0.043,0.257c0.027,0.077,0.066,0.144,0.117,0.2 c0.049,0.057,0.108,0.101,0.176,0.132s0.141,0.047,0.219,0.047s0.15-0.016,0.219-0.047c0.067-0.031,0.126-0.075,0.176-0.132 s0.09-0.124,0.117-0.202c0.029-0.078,0.043-0.165,0.043-0.259c0-0.092-0.014-0.177-0.043-0.256 c-0.027-0.078-0.067-0.146-0.117-0.202s-0.108-0.101-0.176-0.132c-0.068-0.03-0.141-0.046-0.219-0.046s-0.151,0.016-0.219,0.048 c-0.067,0.033-0.127,0.077-0.176,0.134c-0.051,0.057-0.09,0.124-0.117,0.203C73.154,20.849,73.141,20.934,73.141,21.025z"></path> <path fill="#12C3F4" d="M75.303,19.126h0.543v2.275c0,0.079,0.018,0.14,0.057,0.183c0.037,0.043,0.092,0.064,0.162,0.064 c0.031,0,0.067-0.005,0.106-0.016s0.076-0.024,0.111-0.041l0.073,0.413c-0.073,0.035-0.158,0.062-0.256,0.081 c-0.097,0.019-0.185,0.028-0.263,0.028c-0.17,0-0.302-0.045-0.395-0.136c-0.093-0.09-0.14-0.219-0.14-0.387V19.126z"></path> <path fill="#12C3F4" d="M77.708,22.122c-0.173,0-0.328-0.029-0.466-0.089s-0.254-0.14-0.35-0.24 c-0.097-0.102-0.17-0.219-0.221-0.351c-0.052-0.133-0.078-0.271-0.078-0.417c0-0.148,0.026-0.289,0.078-0.421 c0.051-0.133,0.124-0.249,0.221-0.351c0.096-0.102,0.212-0.182,0.35-0.241s0.293-0.089,0.466-0.089s0.327,0.029,0.464,0.089 c0.136,0.06,0.252,0.14,0.348,0.241s0.17,0.218,0.221,0.351c0.051,0.132,0.077,0.272,0.077,0.421c0,0.146-0.026,0.284-0.077,0.417 c-0.051,0.132-0.124,0.249-0.219,0.351c-0.094,0.101-0.211,0.181-0.348,0.24C78.035,22.093,77.881,22.122,77.708,22.122z M77.153,21.025c0,0.095,0.015,0.18,0.042,0.257c0.029,0.077,0.068,0.144,0.117,0.2c0.051,0.057,0.109,0.101,0.177,0.132 s0.14,0.047,0.219,0.047c0.078,0,0.151-0.016,0.218-0.047c0.068-0.031,0.127-0.075,0.177-0.132s0.089-0.124,0.118-0.202 c0.027-0.078,0.042-0.165,0.042-0.259c0-0.092-0.015-0.177-0.042-0.256c-0.029-0.078-0.068-0.146-0.118-0.202 s-0.108-0.101-0.177-0.132c-0.066-0.03-0.14-0.046-0.218-0.046c-0.079,0-0.151,0.016-0.219,0.048 c-0.067,0.033-0.126,0.077-0.177,0.134c-0.049,0.057-0.088,0.124-0.117,0.203C77.168,20.849,77.153,20.934,77.153,21.025z"></path> <path fill="#12C3F4" d="M80.149,22.094c-0.144,0-0.272-0.028-0.389-0.085s-0.217-0.134-0.302-0.232s-0.15-0.213-0.196-0.342 c-0.046-0.13-0.069-0.268-0.069-0.413c0-0.154,0.025-0.297,0.073-0.43c0.049-0.132,0.116-0.248,0.202-0.348 c0.087-0.101,0.19-0.179,0.312-0.235c0.121-0.057,0.255-0.085,0.4-0.085c0.164,0,0.309,0.037,0.434,0.111 c0.124,0.074,0.227,0.174,0.308,0.298V19.96h0.474v2.021c0,0.157-0.029,0.297-0.089,0.422c-0.06,0.124-0.142,0.229-0.245,0.315 c-0.104,0.086-0.229,0.152-0.373,0.198s-0.301,0.069-0.471,0.069c-0.232,0-0.428-0.039-0.586-0.116 c-0.158-0.076-0.293-0.186-0.406-0.325l0.295-0.288c0.081,0.101,0.184,0.179,0.307,0.235c0.122,0.057,0.252,0.085,0.391,0.085 c0.083,0,0.164-0.012,0.24-0.034c0.077-0.023,0.145-0.06,0.205-0.107c0.059-0.049,0.105-0.111,0.139-0.187 c0.034-0.075,0.051-0.165,0.051-0.268v-0.267c-0.07,0.121-0.168,0.215-0.295,0.281S80.295,22.094,80.149,22.094z M80.332,21.661 c0.059,0,0.115-0.01,0.17-0.028c0.054-0.02,0.104-0.045,0.149-0.077s0.087-0.07,0.122-0.113s0.062-0.089,0.08-0.138v-0.506 c-0.049-0.124-0.125-0.225-0.229-0.3c-0.104-0.076-0.213-0.113-0.326-0.113c-0.084,0-0.159,0.018-0.227,0.055 c-0.067,0.036-0.125,0.085-0.174,0.146s-0.086,0.13-0.111,0.208c-0.025,0.079-0.039,0.16-0.039,0.243 c0,0.087,0.016,0.168,0.045,0.243s0.07,0.142,0.123,0.198s0.115,0.102,0.185,0.134C80.171,21.645,80.248,21.661,80.332,21.661z"></path> <path fill="#12C3F4" d="M82.068,22.495c0.047,0.014,0.091,0.023,0.135,0.03c0.043,0.007,0.079,0.01,0.109,0.01 c0.034,0,0.066-0.007,0.097-0.02c0.029-0.014,0.057-0.037,0.081-0.071c0.023-0.034,0.049-0.08,0.072-0.14 c0.025-0.06,0.051-0.134,0.077-0.223l-0.838-2.122h0.559l0.575,1.652l0.51-1.652h0.51l-0.891,2.543 c-0.051,0.148-0.139,0.271-0.263,0.364c-0.124,0.095-0.278,0.143-0.462,0.143c-0.043,0-0.087-0.004-0.131-0.011 c-0.045-0.007-0.092-0.019-0.141-0.034V22.495z"></path> <path fill="#12C3F4" d="M87.438,21.592v0.49h-1.996v-2.875h1.96v0.49H86v0.692h1.211v0.453H86v0.749H87.438z"></path> <path fill="#12C3F4" d="M88.296,19.96l0.458,0.664l0.032,0.073l0.04-0.073l0.453-0.664h0.56l-0.757,1.065l0.77,1.057h-0.56 l-0.47-0.66l-0.036-0.068l-0.032,0.068l-0.466,0.66h-0.56l0.766-1.057l-0.753-1.065H88.296z"></path> <path fill="#12C3F4" d="M90.025,21.021c0-0.148,0.025-0.289,0.076-0.422c0.052-0.132,0.126-0.248,0.223-0.348 c0.098-0.1,0.215-0.18,0.353-0.239s0.293-0.089,0.466-0.089c0.232,0,0.43,0.05,0.594,0.149c0.162,0.101,0.285,0.231,0.365,0.394 l-0.529,0.161c-0.047-0.078-0.107-0.138-0.183-0.18s-0.159-0.062-0.251-0.062c-0.078,0-0.151,0.016-0.219,0.046 c-0.067,0.031-0.127,0.074-0.176,0.13c-0.051,0.056-0.09,0.122-0.117,0.2c-0.029,0.079-0.043,0.165-0.043,0.26 c0,0.094,0.015,0.181,0.045,0.259c0.029,0.078,0.068,0.146,0.119,0.202c0.05,0.057,0.108,0.101,0.176,0.132 s0.139,0.047,0.215,0.047c0.098,0,0.187-0.024,0.27-0.073c0.082-0.049,0.139-0.107,0.172-0.178l0.53,0.162 c-0.073,0.161-0.192,0.294-0.36,0.396s-0.369,0.153-0.604,0.153c-0.173,0-0.328-0.029-0.465-0.089 c-0.139-0.06-0.256-0.14-0.354-0.24c-0.097-0.102-0.172-0.219-0.225-0.353S90.025,21.167,90.025,21.021z"></path> <path fill="#12C3F4" d="M93.544,22.122c-0.17,0-0.323-0.028-0.462-0.087c-0.137-0.058-0.255-0.137-0.352-0.236 c-0.098-0.1-0.172-0.216-0.225-0.349c-0.053-0.132-0.08-0.271-0.08-0.417c0-0.151,0.026-0.294,0.078-0.427 c0.051-0.134,0.125-0.251,0.223-0.353c0.097-0.102,0.215-0.182,0.354-0.241s0.295-0.089,0.468-0.089s0.327,0.029,0.464,0.089 s0.252,0.14,0.348,0.239s0.169,0.216,0.219,0.348c0.051,0.133,0.075,0.271,0.075,0.413c0,0.035-0.001,0.069-0.002,0.102 s-0.005,0.06-0.011,0.081h-1.639c0.008,0.084,0.027,0.158,0.061,0.223c0.031,0.064,0.074,0.12,0.125,0.166 s0.109,0.081,0.174,0.105s0.133,0.036,0.203,0.036c0.107,0,0.209-0.026,0.306-0.079c0.096-0.053,0.161-0.122,0.196-0.208 l0.465,0.129c-0.078,0.162-0.203,0.295-0.374,0.399C93.986,22.07,93.781,22.122,93.544,22.122z M94.095,20.843 c-0.014-0.159-0.072-0.286-0.177-0.383c-0.104-0.096-0.229-0.144-0.378-0.144c-0.073,0-0.142,0.013-0.204,0.039 c-0.064,0.025-0.12,0.062-0.168,0.106c-0.049,0.047-0.089,0.102-0.12,0.166c-0.031,0.065-0.05,0.137-0.055,0.215H94.095z"></path> <path fill="#12C3F4" d="M95.119,19.126h0.543v2.275c0,0.079,0.018,0.14,0.057,0.183c0.037,0.043,0.092,0.064,0.162,0.064 c0.031,0,0.067-0.005,0.106-0.016s0.076-0.024,0.111-0.041l0.073,0.413c-0.073,0.035-0.158,0.062-0.256,0.081 c-0.097,0.019-0.185,0.028-0.263,0.028c-0.17,0-0.302-0.045-0.395-0.136c-0.093-0.09-0.14-0.219-0.14-0.387V19.126z"></path> <path fill="#12C3F4" d="M96.541,19.126h0.542v2.275c0,0.079,0.019,0.14,0.057,0.183s0.092,0.064,0.162,0.064 c0.032,0,0.067-0.005,0.106-0.016s0.076-0.024,0.111-0.041l0.074,0.413c-0.074,0.035-0.158,0.062-0.256,0.081 s-0.186,0.028-0.264,0.028c-0.17,0-0.301-0.045-0.395-0.136c-0.093-0.09-0.139-0.219-0.139-0.387V19.126z"></path> <path fill="#12C3F4" d="M98.949,22.122c-0.17,0-0.324-0.028-0.461-0.087c-0.139-0.058-0.256-0.137-0.354-0.236 c-0.097-0.1-0.172-0.216-0.225-0.349c-0.053-0.132-0.078-0.271-0.078-0.417c0-0.151,0.025-0.294,0.076-0.427 c0.052-0.134,0.126-0.251,0.223-0.353c0.098-0.102,0.216-0.182,0.354-0.241c0.14-0.06,0.295-0.089,0.468-0.089 s0.328,0.029,0.464,0.089s0.253,0.14,0.349,0.239s0.168,0.216,0.219,0.348c0.049,0.133,0.074,0.271,0.074,0.413 c0,0.035,0,0.069-0.002,0.102s-0.005,0.06-0.01,0.081h-1.641c0.008,0.084,0.029,0.158,0.061,0.223 c0.033,0.064,0.074,0.12,0.126,0.166s0.109,0.081,0.175,0.105c0.064,0.024,0.132,0.036,0.201,0.036 c0.108,0,0.211-0.026,0.307-0.079s0.161-0.122,0.196-0.208l0.466,0.129c-0.078,0.162-0.203,0.295-0.375,0.399 C99.391,22.07,99.187,22.122,98.949,22.122z M99.5,20.843c-0.014-0.159-0.072-0.286-0.176-0.383 c-0.104-0.096-0.23-0.144-0.379-0.144c-0.073,0-0.141,0.013-0.205,0.039c-0.062,0.025-0.119,0.062-0.168,0.106 c-0.049,0.047-0.088,0.102-0.119,0.166c-0.031,0.065-0.049,0.137-0.055,0.215H99.5z"></path> <path fill="#12C3F4" d="M102.5,22.082h-0.543v-1.19c0-0.17-0.029-0.294-0.088-0.372c-0.061-0.079-0.143-0.118-0.248-0.118 c-0.054,0-0.109,0.011-0.166,0.032c-0.057,0.022-0.109,0.053-0.16,0.092c-0.049,0.039-0.095,0.086-0.135,0.14 c-0.041,0.054-0.07,0.113-0.09,0.178v1.239h-0.542V19.96h0.489v0.394c0.079-0.136,0.192-0.24,0.341-0.316 c0.148-0.075,0.315-0.113,0.502-0.113c0.132,0,0.24,0.024,0.324,0.073c0.083,0.048,0.148,0.111,0.194,0.19 c0.046,0.078,0.077,0.167,0.095,0.267s0.026,0.201,0.026,0.304V22.082z"></path> <path fill="#12C3F4" d="M102.979,21.021c0-0.148,0.025-0.289,0.076-0.422c0.052-0.132,0.126-0.248,0.223-0.348 c0.098-0.1,0.215-0.18,0.353-0.239s0.293-0.089,0.466-0.089c0.232,0,0.43,0.05,0.594,0.149c0.162,0.101,0.285,0.231,0.365,0.394 l-0.529,0.161c-0.047-0.078-0.107-0.138-0.183-0.18s-0.159-0.062-0.251-0.062c-0.078,0-0.151,0.016-0.219,0.046 c-0.067,0.031-0.127,0.074-0.176,0.13c-0.051,0.056-0.09,0.122-0.117,0.2c-0.029,0.079-0.043,0.165-0.043,0.26 c0,0.094,0.015,0.181,0.045,0.259c0.029,0.078,0.068,0.146,0.119,0.202c0.05,0.057,0.108,0.101,0.176,0.132 s0.139,0.047,0.215,0.047c0.098,0,0.187-0.024,0.27-0.073c0.082-0.049,0.139-0.107,0.172-0.178l0.53,0.162 c-0.073,0.161-0.192,0.294-0.36,0.396s-0.369,0.153-0.604,0.153c-0.173,0-0.328-0.029-0.465-0.089 c-0.139-0.06-0.256-0.14-0.354-0.24c-0.097-0.102-0.172-0.219-0.225-0.353S102.979,21.167,102.979,21.021z"></path> <path fill="#12C3F4" d="M106.497,22.122c-0.17,0-0.323-0.028-0.462-0.087c-0.137-0.058-0.255-0.137-0.352-0.236 c-0.098-0.1-0.172-0.216-0.225-0.349c-0.053-0.132-0.08-0.271-0.08-0.417c0-0.151,0.026-0.294,0.078-0.427 c0.051-0.134,0.125-0.251,0.223-0.353c0.097-0.102,0.215-0.182,0.354-0.241s0.295-0.089,0.468-0.089s0.327,0.029,0.464,0.089 s0.252,0.14,0.348,0.239s0.169,0.216,0.219,0.348c0.051,0.133,0.075,0.271,0.075,0.413c0,0.035-0.001,0.069-0.002,0.102 s-0.005,0.06-0.011,0.081h-1.639c0.008,0.084,0.027,0.158,0.061,0.223c0.031,0.064,0.074,0.12,0.125,0.166 s0.109,0.081,0.174,0.105s0.133,0.036,0.203,0.036c0.107,0,0.209-0.026,0.306-0.079c0.096-0.053,0.161-0.122,0.196-0.208 l0.465,0.129c-0.078,0.162-0.203,0.295-0.374,0.399C106.939,22.07,106.734,22.122,106.497,22.122z M107.048,20.843 c-0.014-0.159-0.072-0.286-0.177-0.383c-0.104-0.096-0.229-0.144-0.378-0.144c-0.073,0-0.142,0.013-0.204,0.039 c-0.064,0.025-0.12,0.062-0.168,0.106c-0.049,0.047-0.089,0.102-0.12,0.166c-0.031,0.065-0.05,0.137-0.055,0.215H107.048z"></path> </g> </g> <path fill="#259EBA" d="M4.256,8.821c0.135,0,0.267,0.01,0.398,0.025c-0.027-0.123-0.043-0.25-0.043-0.381 c0-0.981,0.796-1.777,1.777-1.777c0.118,0,0.233,0.013,0.345,0.034c0.004-0.07,0.011-0.141,0.011-0.212 c0-1.345-0.788-2.502-1.925-3.046c-1.68,1.467-3.007,3.325-3.84,5.433c0.31,0.311,0.679,0.559,1.089,0.73 C2.658,9.126,3.42,8.821,4.256,8.821z"></path> <path fill="#259EBA" d="M25.816,13.47c0.248,0.471,0.389,1.004,0.389,1.572c0,1.827-1.454,3.312-3.267,3.371 c0.281,0.908,0.889,1.671,1.684,2.158c0.31-0.389,0.781-0.643,1.317-0.643c0.272,0,0.526,0.07,0.754,0.186 c0.887-1.84,1.384-3.9,1.384-6.076c0-0.131-0.006-0.26-0.01-0.39c-0.439-0.172-0.916-0.271-1.417-0.271 C26.363,13.378,26.085,13.411,25.816,13.47z"></path> <path fill="#259EBA" d="M25.816,13.47c-0.565-1.073-1.69-1.806-2.988-1.806c-0.626,0-1.21,0.174-1.713,0.471 c0.121,0.527,0.19,1.073,0.19,1.638c0,1.299-0.341,2.519-0.935,3.579c0.616,0.655,1.488,1.067,2.458,1.067 c0.037,0,0.073-0.005,0.11-0.006c-0.113-0.363-0.174-0.75-0.174-1.15C22.765,15.404,24.072,13.852,25.816,13.47z"></path> <path fill="#259EBA" d="M26.206,15.042c0-0.568-0.142-1.102-0.389-1.572c-1.745,0.382-3.052,1.935-3.052,3.793 c0,0.4,0.061,0.787,0.174,1.15C24.752,18.354,26.206,16.869,26.206,15.042z"></path> <path fill="#259EBA" d="M26.206,15.042c0-0.568-0.142-1.102-0.389-1.572c-1.745,0.382-3.052,1.935-3.052,3.793 c0,0.4,0.061,0.787,0.174,1.15C24.752,18.354,26.206,16.869,26.206,15.042z"></path> <path fill="#259EBA" d="M7.276,10.695c-0.096-0.194-0.211-0.377-0.342-0.548c-0.173,0.057-0.354,0.095-0.546,0.095 c-0.597,0-1.122-0.296-1.444-0.747C4.473,9.744,3.937,9.888,3.367,9.888c-0.46,0-0.898-0.094-1.298-0.26 c-0.727,0.619-1.19,1.54-1.19,2.569c0,1.865,1.512,3.378,3.377,3.378c0.931,0,1.774-0.377,2.385-0.987 c-0.03-0.268-0.048-0.54-0.048-0.815C6.593,12.673,6.842,11.633,7.276,10.695z"></path> <path fill="#259EBA" d="M4.944,9.495c-0.137-0.191-0.238-0.41-0.29-0.648C4.523,8.831,4.391,8.821,4.256,8.821 c-0.835,0-1.598,0.305-2.188,0.807c0.4,0.166,0.838,0.26,1.298,0.26C3.937,9.888,4.473,9.744,4.944,9.495z"></path> <path fill="#259EBA" d="M4.944,9.495c-0.137-0.191-0.238-0.41-0.29-0.648C4.523,8.831,4.391,8.821,4.256,8.821 c-0.835,0-1.598,0.305-2.188,0.807c0.4,0.166,0.838,0.26,1.298,0.26C3.937,9.888,4.473,9.744,4.944,9.495z"></path> <path fill="#259EBA" d="M12.787,3.489c1.227,0,2.222-0.995,2.222-2.222c0-0.465-0.143-0.896-0.387-1.253 C14.428,0.007,14.234,0,14.039,0c-1.135,0-2.237,0.139-3.295,0.395c-0.115,0.268-0.179,0.562-0.179,0.873 C10.565,2.494,11.56,3.489,12.787,3.489z"></path> <path fill="#259EBA" d="M22.118,4.066c0,0.761,0.617,1.378,1.377,1.378c0.473,0,0.89-0.239,1.138-0.602 c-0.595-0.684-1.253-1.311-1.968-1.868C22.334,3.227,22.118,3.619,22.118,4.066z"></path> <circle fill="#259EBA" cx="22.695" cy="7.622" r="0.844"></circle> <circle fill="#259EBA" cx="20.962" cy="23.75" r="0.578"></circle> <path fill="#259EBA" d="M5.151,23.309c0.066,0.025,0.139,0.042,0.215,0.042c0.319,0,0.578-0.259,0.578-0.578 c0-0.181-0.084-0.339-0.213-0.445C5.651,22.718,5.44,23.056,5.151,23.309z"></path> <path fill="#259EBA" d="M15.364,24.729c0-0.032-0.004-0.062-0.004-0.093c-1.515-0.481-2.618-1.884-2.657-3.549 c-0.366-0.116-0.755-0.181-1.16-0.181c-2.11,0-3.821,1.711-3.821,3.822c0,0.801,0.248,1.544,0.67,2.158 c1.547,0.683,3.239,1.095,5.017,1.174C14.574,27.407,15.364,26.16,15.364,24.729z"></path> <path fill="#259EBA" d="M13.95,21.129c-0.428,0-0.844-0.044-1.251-0.115c0,0.025,0.003,0.049,0.003,0.073 c1.515,0.482,2.618,1.884,2.657,3.549c0.366,0.117,0.755,0.181,1.16,0.181c2.11,0,3.821-1.711,3.821-3.821 c0-0.909-0.319-1.744-0.85-2.399C18.141,20.144,16.16,21.129,13.95,21.129z"></path> <path fill="#259EBA" d="M12.702,21.087c0.04,1.665,1.142,3.067,2.657,3.549C15.32,22.971,14.217,21.569,12.702,21.087z"></path> <path fill="#259EBA" d="M12.702,21.087c0.04,1.665,1.142,3.067,2.657,3.549C15.32,22.971,14.217,21.569,12.702,21.087z"></path> <path fill="#259EBA" d="M5.151,23.309c-0.212-0.086-0.362-0.293-0.362-0.536c0-0.319,0.258-0.577,0.578-0.577 c0.139,0,0.265,0.051,0.364,0.132c0.023-0.114,0.036-0.232,0.036-0.354c0-0.981-0.796-1.776-1.777-1.776 c-0.868,0-1.587,0.621-1.744,1.443c0.488,0.753,1.044,1.457,1.663,2.103c0.027,0.001,0.053,0.009,0.081,0.009 C4.436,23.751,4.839,23.579,5.151,23.309z"></path> <path fill="#259EBA" d="M4.789,22.772c0,0.243,0.15,0.45,0.362,0.536c0.289-0.253,0.5-0.591,0.58-0.981 c-0.1-0.081-0.226-0.132-0.364-0.132C5.047,22.195,4.789,22.453,4.789,22.772z"></path> <path fill="#259EBA" d="M4.789,22.772c0,0.243,0.15,0.45,0.362,0.536c0.289-0.253,0.5-0.591,0.58-0.981 c-0.1-0.081-0.226-0.132-0.364-0.132C5.047,22.195,4.789,22.453,4.789,22.772z"></path> <circle fill="#259EBA" cx="3.723" cy="18.863" r="0.888"></circle> <path fill="#259EBA" d="M24.622,20.571c-0.229,0.289-0.372,0.648-0.372,1.047c0,0.534,0.254,1.005,0.642,1.314 c0.468-0.57,0.89-1.18,1.265-1.819C25.599,21.042,25.08,20.854,24.622,20.571z"></path> <path fill="#259EBA" d="M24.622,20.571c0.458,0.282,0.977,0.471,1.535,0.542c0.19-0.326,0.371-0.657,0.536-0.999 c-0.228-0.115-0.481-0.186-0.754-0.186C25.403,19.929,24.932,20.183,24.622,20.571z"></path> <path fill="#259EBA" d="M24.622,20.571c0.458,0.282,0.977,0.471,1.535,0.542c0.19-0.326,0.371-0.657,0.536-0.999 c-0.228-0.115-0.481-0.186-0.754-0.186C25.403,19.929,24.932,20.183,24.622,20.571z"></path> <path fill="#259EBA" d="M5.554,9.081c0.55,0.229,1.023,0.601,1.38,1.066c0.713-0.23,1.231-0.893,1.231-1.682 c0-0.864-0.616-1.583-1.433-1.743C6.674,7.666,6.23,8.504,5.554,9.081z"></path> <path fill="#259EBA" d="M6.733,6.723C6.622,6.701,6.506,6.688,6.388,6.688c-0.981,0-1.777,0.796-1.777,1.777 c0,0.131,0.017,0.258,0.043,0.381c0.315,0.037,0.617,0.115,0.9,0.234C6.23,8.504,6.674,7.666,6.733,6.723z"></path> <path fill="#259EBA" d="M6.733,6.723C6.622,6.701,6.506,6.688,6.388,6.688c-0.981,0-1.777,0.796-1.777,1.777 c0,0.131,0.017,0.258,0.043,0.381c0.315,0.037,0.617,0.115,0.9,0.234C6.23,8.504,6.674,7.666,6.733,6.723z"></path> <path fill="#259EBA" d="M5.554,9.081C5.367,9.24,5.164,9.38,4.944,9.495c0.322,0.451,0.847,0.747,1.444,0.747 c0.192,0,0.373-0.038,0.546-0.095C6.577,9.682,6.104,9.31,5.554,9.081z"></path> <path fill="#259EBA" d="M5.554,9.081C5.367,9.24,5.164,9.38,4.944,9.495c0.322,0.451,0.847,0.747,1.444,0.747 c0.192,0,0.373-0.038,0.546-0.095C6.577,9.682,6.104,9.31,5.554,9.081z"></path> <path fill="#259EBA" d="M5.554,9.081c-0.283-0.119-0.585-0.197-0.9-0.234c0.052,0.238,0.153,0.457,0.29,0.648 C5.164,9.38,5.367,9.24,5.554,9.081z"></path> <path fill="#259EBA" d="M5.554,9.081c-0.283-0.119-0.585-0.197-0.9-0.234c0.052,0.238,0.153,0.457,0.29,0.648 C5.164,9.38,5.367,9.24,5.554,9.081z"></path> <path fill="#259EBA" d="M5.554,9.081c-0.283-0.119-0.585-0.197-0.9-0.234c0.052,0.238,0.153,0.457,0.29,0.648 C5.164,9.38,5.367,9.24,5.554,9.081z"></path> <path fill="none" d="M44.987,10.872c-1.266,0-2.136,1.007-2.136,2.196c0,1.219,0.884,2.226,2.136,2.226 c1.265,0,2.165-1.021,2.165-2.226C47.152,11.879,46.252,10.872,44.987,10.872z"></path> <path fill="none" d="M35.716,8.31h-1.814v2.943h1.708c1.113,0,1.602-0.731,1.602-1.48C37.21,8.996,36.661,8.31,35.716,8.31z"></path> <path fill="#1A2E45" d="M35.7,5.992h-4.315v11.27h2.517v-3.736h1.616c3.065,0,4.27-1.754,4.27-3.722 C39.788,7.867,38.644,5.992,35.7,5.992z M35.609,11.253h-1.708V8.31h1.814c0.945,0,1.495,0.687,1.495,1.463 C37.21,10.521,36.722,11.253,35.609,11.253z"></path> <path fill="#1A2E45" d="M47.152,9.789c-0.609-0.625-1.449-1.098-2.577-1.098c-2.364,0-4.117,1.845-4.117,4.345 c0,2.486,1.708,4.438,4.117,4.438c1.143,0,1.968-0.455,2.577-1.067v0.855h2.257V8.904h-2.257V9.789z M44.987,15.294 c-1.251,0-2.136-1.007-2.136-2.226c0-1.189,0.87-2.196,2.136-2.196c1.265,0,2.165,1.007,2.165,2.196 C47.152,14.272,46.252,15.294,44.987,15.294z"></path> <path fill="#1A2E45" d="M55.462,15.294c-0.747,0-1.113-0.457-1.113-1.418v-2.989h2.684V8.904h-2.684V5.946H51.97v2.958h-1.342v1.982 h1.326v3.218c0,2.242,1.037,3.369,2.989,3.369c0.9,0,1.892-0.258,2.562-0.686l-0.671-1.905 C56.423,15.097,55.996,15.294,55.462,15.294z"></path> <path fill="#1A2E45" d="M63.438,8.675c-1.281,0-2.227,0.641-2.639,1.343V5.656h-2.334v11.605h2.395v-4.425 c0-1.172,0.732-1.965,1.801-1.965c0.975,0,1.615,0.671,1.615,1.906v4.483h2.395v-5.11C66.67,9.789,65.099,8.675,63.438,8.675z"></path> <polygon fill="#12C3F4" points="71.214,5.992 68.682,5.992 68.682,17.262 76.825,17.262 76.825,14.852 71.214,14.852 "></polygon> <polygon fill="#12C3F4" points="81.338,5.992 77.113,17.262 79.736,17.262 82.42,9.21 85.044,17.262 87.667,17.262 83.534,5.992 "></polygon> <polygon fill="#12C3F4" points="98.478,5.992 95.428,5.992 91.477,11.024 91.477,5.992 88.961,5.992 88.961,17.262 91.477,17.262 91.477,14.576 92.805,12.976 95.641,17.262 98.736,17.262 94.451,11.054 "></polygon> <polygon fill="#12C3F4" points="107.596,8.34 107.596,5.992 99.727,5.992 99.727,17.262 107.581,17.262 107.581,14.912 102.259,14.912 102.259,12.764 107.199,12.764 107.199,10.429 102.259,10.429 102.259,8.34 "></polygon> </svg> 